# xmcd
#
# Track frame offsets:
#	150
#	54714
#	102718
#	148884
#	218801
#
# Disc length: 3867 seconds
# Revision: 0
# Processed by: cddbd v1.5.2PL0 Copyright (c) Steve Scherf et al.
# Submitted via: dBpowerAMP V12.0
#
DISCID=510f1905
DTITLE=Larry Crane - The Goals and Resistance Course Week 2 CD 02
DYEAR=1998
DGENRE=Speech
TTITLE0=The Goals and Resistance Course Week 2 pt 7
TTITLE1=The Goals and Resistance Course Week 2 pt 8
TTITLE2=The Goals and Resistance Course Week 2 pt 9
TTITLE3=The Goals and Resistance Course Week 2 pt 10
TTITLE4=The Goals and Resistance Course Week 2 pt 11
EXTD=
EXTT0=
EXTT1=
EXTT2=
EXTT3=
EXTT4=
PLAYORDER=
